# xmcd CD database file
#
# Track frame offsets:
#	150
#	27425
#	40150
#	50125
#	65613
#	82275
#	104613
#	112883
#	124855
#	136063
#	147788
#	157450
#	168705
#	177963
#	195700
#	211838
#
# Disc length: 3074 seconds
#
# Revision: 0
# Processed by: cddbd v1.4PL0 Copyright (c) Steve Scherf et al.
# Submitted via: Feurio! 1.65 - http://www.feurio.com
#
DISCID=f50c0010
DTITLE=Various Artist - Romantic Piano 10
DYEAR=1900
DGENRE=Piano
TTITLE0=The maiden's prayer
TTITLE1=Fur Elise
TTITLE2=Gavotte
TTITLE3=Humoresque
TTITLE4=Turkish March
TTITLE5=Cinguataive la
TTITLE6=Valse nr.6 in flat major
TTITLE7=From the garden's corner
TTITLE8=La fille aux cheveux de lin
TTITLE9=Sonata
TTITLE10=Sound of angel
TTITLE11=Menute
TTITLE12=Wedding
TTITLE13=Tchakvosky piano concerto nr.1
TTITLE14=Mozert piano concerto nr.21
TTITLE15=Liebestraum
EXTD=
EXTT0=
EXTT1=
EXTT2=
EXTT3=
EXTT4=
EXTT5=
EXTT6=
EXTT7=
EXTT8=
EXTT9=
EXTT10=
EXTT11=
EXTT12=
EXTT13=
EXTT14=
EXTT15=
PLAYORDER=
